<?xml version="1.0" standalone="no"?>
<!DOCTYPE svg PUBLIC "-//W3C//DTD SVG 20010904//EN"
 "http://www.w3.org/TR/2001/REC-SVG-20010904/DTD/svg10.dtd">
<svg version="1.0" xmlns="http://www.w3.org/2000/svg"
 width="890.000000pt" height="515.000000pt" viewBox="0 0 890.000000 515.000000"
 preserveAspectRatio="xMidYMid meet">

<g transform="translate(0.000000,515.000000) scale(0.100000,-0.100000)"
fill="#000000" stroke="none">
<path d="M4717 4710 c-137 -35 -240 -152 -268 -304 l-12 -66 -51 0 c-67 0
-111 -13 -170 -50 -45 -29 -51 -30 -109 -23 -122 16 -225 -17 -303 -99 l-39
-40 54 40 c176 131 408 75 502 -123 16 -33 29 -77 29 -97 0 -34 3 -38 26 -38
14 0 23 4 19 10 -9 15 4 12 21 -5 9 -8 25 -15 37 -15 66 -1 182 -90 223 -172
19 -38 30 -48 49 -48 l25 0 -24 48 c-35 69 -124 147 -191 168 l-54 17 31 16
c42 21 67 58 74 106 l6 40 -21 -40 c-25 -49 -66 -75 -118 -75 -52 0 -58 6 -82
74 -27 77 -66 132 -118 170 -24 16 -43 33 -43 37 0 12 74 58 117 73 24 8 67
16 97 18 l54 3 6 45 c22 160 160 287 322 298 104 7 181 -21 269 -97 17 -14 10
-4 -15 22 -84 90 -230 135 -343 107z"/>
<path d="M5166 4544 c-67 -21 -45 -36 24 -18 115 32 243 -6 338 -99 28 -28 52
-47 52 -41 0 12 -96 105 -131 126 -73 46 -194 59 -283 32z"/>
<path d="M5660 4390 c41 -4 88 -12 103 -19 34 -13 37 -14 37 -2 0 15 -85 31
-152 29 l-63 -1 75 -7z"/>
<path d="M5927 4369 c59 -11 127 -61 159 -115 35 -60 44 -155 19 -208 -24 -51
-96 -111 -164 -137 -79 -30 -194 -24 -268 14 -62 32 -125 95 -153 152 -23 47
-43 142 -33 159 4 7 1 6 -7 -1 -8 -8 -15 -44 -18 -95 -3 -67 0 -94 17 -139 62
-164 241 -254 407 -204 66 19 138 68 172 116 15 21 33 39 40 39 24 0 56 90 56
160 1 147 -113 274 -240 269 -23 -1 -20 -3 13 -10z"/>
<path d="M3491 4110 c-29 -11 -60 -25 -70 -32 -33 -25 -111 -103 -111 -111 0
-5 27 16 60 47 47 43 75 60 126 76 78 24 110 25 184 5 30 -8 58 -11 63 -6 11
11 -100 41 -154 41 -24 -1 -68 -9 -98 -20z"/>
<path d="M3142 3970 c-18 -4 -36 -11 -40 -15 -4 -4 9 -4 28 0 19 5 64 11 100
15 l65 7 -60 0 c-33 1 -75 -3 -93 -7z"/>
<path d="M2950 3961 c-69 -21 -131 -74 -166 -141 -26 -49 -26 -171 0 -222 l18
-38 -30 -37 c-63 -81 -77 -120 -77 -223 0 -82 4 -102 25 -146 17 -35 24 -59
19 -75 -28 -99 -62 -215 -65 -217 -1 -2 -29 11 -61 30 -195 114 -370 106 -505
-23 -23 -22 -42 -38 -43 -37 -2 2 -15 28 -30 58 -29 58 -103 168 -127 188 -12
10 -14 3 -10 -43 7 -84 -3 -114 -80 -231 -93 -142 -111 -189 -112 -284 0 -58
5 -84 22 -116 18 -35 19 -47 10 -76 l-10 -34 -57 19 c-124 42 -240 8 -410
-122 -106 -80 -148 -95 -239 -88 l-63 5 58 -45 c76 -59 218 -128 318 -153 87
-22 235 -30 325 -17 l55 8 29 -91 c27 -87 27 -92 11 -110 -35 -39 -106 -64
-177 -64 -38 0 -68 -1 -68 -3 0 -1 32 -21 71 -44 70 -42 245 -109 285 -109 16
0 37 -26 87 -110 l66 -110 -16 -45 c-8 -25 -19 -47 -24 -51 -5 -3 -9 -12 -9
-20 0 -8 5 -12 10 -9 25 15 5 -17 -47 -78 -32 -37 -95 -94 -139 -127 -209
-153 -251 -265 -128 -332 66 -36 167 -55 364 -70 132 -10 156 -14 120 -20
-126 -20 -150 -25 -157 -31 -3 -4 4 -7 17 -7 31 0 100 -21 100 -31 0 -4 -6
-10 -12 -13 -7 -4 3 -3 22 0 19 3 64 8 100 11 71 4 77 2 295 -94 112 -50 390
-149 555 -199 104 -31 141 -37 220 -38 75 -1 102 3 130 18 65 34 121 88 198
187 41 55 82 99 91 99 9 0 32 -5 51 -10 41 -12 147 -2 115 11 -11 4 41 7 115
5 143 -2 202 -16 120 -27 -41 -5 -39 -6 22 -7 36 -1 75 -5 85 -8 15 -5 15 -4
3 5 -8 6 -25 11 -37 11 -13 0 -23 4 -23 9 0 6 16 5 39 -2 42 -13 125 -82 116
-97 -7 -12 40 -43 98 -65 53 -20 62 -30 17 -21 -40 8 -38 2 10 -23 31 -16 38
-17 33 -5 -5 13 3 11 37 -6 23 -12 48 -19 55 -17 6 3 25 -3 41 -14 16 -10 42
-19 57 -19 30 0 97 -25 97 -36 0 -4 -18 -4 -39 0 -28 4 -40 2 -44 -8 -4 -9 3
-16 18 -19 14 -2 22 0 19 4 -3 5 23 7 58 4 50 -3 56 -2 28 5 -28 7 -22 8 30 5
414 -23 466 -25 493 -15 16 5 33 8 37 5 11 -7 167 21 215 39 22 8 33 15 25 16
-8 0 8 10 35 21 28 10 56 17 63 14 22 -8 13 -26 -23 -41 -43 -18 -44 -22 -4
-16 21 3 30 1 25 -6 -9 -16 -102 -33 -127 -24 -13 5 -43 3 -72 -5 -28 -7 -64
-13 -79 -13 -15 0 -28 -4 -28 -10 0 -5 18 -8 43 -5 23 2 70 7 104 9 34 3 92
13 129 22 54 14 73 24 108 61 41 45 43 45 206 84 91 21 169 37 175 36 14 -5
-115 -47 -144 -47 -14 0 -45 -9 -68 -19 -23 -11 -44 -17 -46 -15 -6 6 -77 -23
-77 -31 0 -10 69 6 163 36 106 35 119 35 52 3 -27 -13 -43 -24 -35 -24 8 0 38
11 66 24 28 13 78 32 110 42 54 16 57 18 30 23 -51 10 -41 28 21 41 59 12 146
51 158 70 3 5 25 10 49 10 63 0 197 37 218 60 19 20 54 28 43 10 -10 -17 99
30 118 51 10 10 32 26 50 35 18 9 53 32 80 50 26 19 51 34 56 34 28 0 18 -27
-27 -71 -27 -27 -48 -49 -45 -49 12 0 133 88 171 123 61 60 51 32 -13 -35 -34
-35 -81 -70 -123 -91 -37 -19 -83 -44 -102 -56 -52 -31 -58 -25 -14 14 36 33
37 35 9 21 -17 -7 -38 -23 -48 -34 -10 -11 -33 -26 -50 -32 -18 -7 -63 -25
-102 -40 -38 -16 -98 -34 -132 -41 -34 -7 -72 -20 -84 -30 -67 -50 194 26 381
110 47 22 100 45 119 52 79 29 146 93 226 215 43 65 84 125 93 133 8 8 21 30
29 49 7 18 17 30 22 27 5 -2 12 7 15 23 12 48 28 82 40 82 22 0 45 103 62 282
16 167 16 179 0 232 -12 36 -29 65 -49 82 l-31 26 24 18 23 18 -44 -1 c-113
-2 -162 19 -244 103 l-39 40 34 70 c24 50 38 69 49 66 83 -24 121 -29 216 -29
120 0 205 16 314 60 79 31 181 92 236 139 36 31 37 34 12 24 -46 -16 -128 -11
-177 11 -24 11 -79 47 -122 80 -42 33 -105 74 -140 91 -55 28 -73 32 -145 33
l-83 0 0 60 c0 185 -81 410 -209 577 -45 60 -52 75 -47 101 6 29 5 30 -13 13
-17 -16 -21 -13 -92 70 -123 145 -216 191 -371 182 -72 -4 -90 -10 -184 -58
-58 -29 -106 -51 -108 -49 -2 2 -19 59 -38 127 l-34 123 30 62 c28 54 31 71
30 147 0 71 -5 95 -28 147 -15 33 -41 74 -58 90 l-30 28 30 -47 c125 -200 -5
-456 -246 -485 -46 -5 -60 -12 -84 -39 -36 -41 -140 -94 -184 -94 -27 0 -36
-6 -58 -44 -56 -96 -163 -164 -282 -181 -43 -5 -59 -3 -95 15 -59 31 -143 37
-207 16 -88 -30 -172 -133 -171 -211 l0 -30 19 36 c46 86 163 147 258 134 62
-8 143 -54 179 -102 58 -76 23 -227 -74 -312 -91 -81 -209 -101 -318 -55 -33
14 -68 26 -79 26 -10 -1 -50 -17 -87 -37 -121 -63 -251 -58 -361 15 l-46 31
-61 -21 c-163 -54 -335 6 -417 146 l-26 44 -41 -22 c-57 -29 -175 -36 -248
-14 -69 20 -145 78 -186 141 -29 44 -39 51 -92 66 -69 18 -103 39 -148 87 -25
27 -41 35 -75 38 -104 8 -193 65 -243 155 -27 49 -30 63 -30 144 0 81 3 95 29
143 38 68 55 82 68 58 24 -43 76 -90 132 -119 53 -27 71 -31 141 -31 67 0 89
4 137 27 66 32 121 89 154 161 19 40 24 67 23 126 -1 99 -13 134 -23 65 -23
-161 -158 -279 -321 -279 -133 -1 -261 90 -279 197 -10 56 17 140 61 188 45
49 76 66 145 78 50 8 50 9 13 9 -22 0 -51 -3 -65 -7z m3155 -573 c2 -7 16 -58
31 -113 15 -55 28 -101 29 -103 2 -2 64 28 138 66 150 77 212 92 302 72 78
-18 136 -62 242 -187 178 -208 247 -326 290 -492 21 -84 24 -112 20 -216 -4
-100 -10 -136 -36 -215 -43 -127 -124 -294 -226 -465 l-83 -140 19 -85 c11
-48 22 -145 26 -223 5 -115 3 -148 -12 -205 -16 -60 -25 -74 -89 -138 -143
-143 -437 -282 -899 -424 -277 -84 -352 -93 -440 -48 -65 33 -163 148 -305
360 -66 98 -266 500 -517 1037 l-76 164 33 73 c18 41 36 74 39 74 4 0 20 -28
36 -62 240 -503 513 -1049 588 -1178 67 -114 208 -312 242 -337 47 -36 98 -39
185 -13 98 30 282 120 458 226 282 168 368 188 218 49 l-73 -68 115 58 c140
70 236 132 283 184 32 35 36 47 42 117 15 157 -30 452 -97 643 -16 47 -63 160
-103 251 -41 91 -133 309 -206 485 -101 246 -133 333 -137 378 -4 56 -4 58 34
93 67 62 163 126 211 140 61 18 69 18 50 -4 -15 -17 -13 -17 51 -14 66 4 68 3
127 -40 133 -98 279 -267 329 -379 47 -108 89 -278 95 -389 l6 -105 15 55 c10
36 15 101 15 185 0 108 -4 143 -23 205 -44 141 -123 262 -261 401 -105 105
-150 136 -220 149 -104 20 -217 -12 -350 -98 -35 -23 -75 -42 -88 -42 -12 0
-23 2 -23 4 0 2 -16 67 -35 145 -19 77 -35 145 -35 149 0 9 37 30 53 31 4 1 9
-5 12 -11z m-216 -100 c6 -29 15 -82 21 -118 26 -150 87 -355 203 -680 84
-235 88 -247 192 -520 217 -573 214 -563 191 -645 -31 -104 -139 -205 -326
-306 -52 -28 -162 -87 -245 -132 -228 -123 -361 -161 -440 -125 -53 24 -155
182 -306 473 -158 307 -509 1072 -509 1112 0 25 32 63 54 63 8 0 38 18 67 40
60 45 62 46 78 26 26 -31 114 -59 187 -59 89 0 162 32 222 97 104 113 126 260
59 394 l-24 48 56 17 c75 22 147 79 196 154 35 54 45 62 80 68 66 12 140 53
181 99 22 24 42 45 46 45 4 1 11 -23 17 -51z m-3056 -415 c-19 -70 -36 -134
-38 -140 -8 -25 -48 -12 -120 37 -94 63 -173 90 -267 90 -91 0 -130 -18 -225
-105 -149 -136 -262 -307 -298 -450 -22 -86 -23 -256 -2 -335 l15 -55 1 66 c1
37 6 90 11 120 19 101 79 274 117 337 47 80 165 207 262 285 l74 59 68 -4 c54
-2 65 0 57 10 -19 22 -2 23 51 3 51 -19 124 -70 189 -129 50 -48 46 -95 -28
-276 -78 -190 -227 -536 -297 -689 -114 -249 -161 -438 -170 -678 -5 -137 -4
-160 12 -193 24 -51 118 -119 270 -197 l120 -62 -70 69 c-62 60 -68 68 -48 71
28 5 113 -38 293 -147 74 -45 181 -104 237 -131 215 -104 286 -113 361 -45 45
41 198 267 275 408 86 157 520 1024 690 1377 l107 223 31 -6 c18 -3 46 -6 65
-6 l33 0 -28 -62 c-16 -35 -75 -160 -131 -278 -584 -1226 -678 -1405 -866
-1646 -165 -212 -217 -219 -636 -80 -402 134 -656 257 -784 382 -66 64 -81 95
-95 189 -13 87 0 260 28 376 l16 67 -66 108 c-274 457 -321 728 -178 1028 48
99 103 176 232 321 112 127 167 164 258 172 77 7 142 -13 266 -82 55 -31 104
-57 109 -58 4 -1 21 43 37 98 40 139 34 130 67 106 l29 -20 -34 -128z m325
-11 c26 -11 63 -23 82 -27 29 -5 41 -15 63 -54 34 -62 95 -116 166 -150 79
-37 201 -37 280 0 l55 25 40 -60 c108 -160 296 -211 464 -124 18 9 26 9 38 -4
14 -13 9 -29 -44 -149 -228 -514 -601 -1292 -722 -1504 -79 -140 -154 -249
-194 -282 -28 -23 -36 -25 -101 -21 -87 6 -145 29 -356 143 -256 137 -344 191
-409 252 -88 81 -115 132 -114 213 1 68 1 69 139 420 296 752 401 1061 450
1330 10 52 19 98 21 102 3 4 25 -15 50 -42 24 -26 66 -57 92 -68z m4203 -1299
c17 -20 18 -23 3 -10 -30 25 -41 21 -15 -7 26 -27 51 -112 51 -173 0 -23 5
-45 11 -49 7 -4 9 -26 5 -63 -13 -106 -38 -231 -49 -238 -7 -4 -8 1 -4 13 7
18 6 18 -7 1 -13 -16 -14 -13 -18 30 -3 26 4 92 14 146 22 121 23 170 1 238
-18 58 -38 89 -59 89 -26 0 -24 19 3 34 37 20 36 20 64 -11z m-80 -355 c-16
-72 -80 -268 -80 -243 -1 55 20 166 37 196 11 19 25 51 32 72 17 54 24 39 11
-25z m-631 -698 c-54 -28 -90 -37 -90 -22 0 8 107 50 130 51 8 0 -10 -13 -40
-29z m-2650 0 c49 -6 44 -7 -45 -8 -55 0 -118 3 -140 7 -33 7 -26 9 45 9 47 0
110 -3 140 -8z m2810 -104 c0 -2 -7 -7 -16 -10 -8 -3 -12 -2 -9 4 6 10 25 14
25 6z m-520 -24 c0 -11 -68 -35 -79 -27 -8 4 -246 -68 -386 -117 -16 -6 -50
-12 -75 -13 -25 0 -83 -9 -130 -18 -47 -9 -128 -21 -180 -26 -53 -6 -110 -15
-126 -21 -30 -10 -95 3 -81 16 10 11 143 34 227 40 47 4 90 10 95 14 6 4 26
11 45 14 19 4 116 26 215 49 99 22 193 40 208 39 15 -1 25 3 22 7 -2 5 30 18
73 29 79 21 172 28 172 14z m-1765 -88 c39 -18 115 -47 170 -65 95 -30 111
-32 305 -38 190 -6 202 -7 165 -20 -22 -7 -91 -16 -153 -18 -91 -4 -120 -2
-145 11 -18 8 -65 20 -104 26 -40 5 -94 17 -120 26 -62 21 -182 80 -213 105
l-25 20 25 -7 c14 -3 57 -21 95 -40z"/>
<path d="M6400 3046 c-69 -29 -140 -65 -140 -71 0 -5 43 -110 232 -575 43
-107 113 -279 155 -382 56 -137 80 -185 88 -178 21 17 122 221 158 320 48 128
71 248 63 322 -11 107 -101 268 -240 431 -37 42 -89 95 -117 117 -43 34 -58
40 -97 40 -26 -1 -72 -11 -102 -24z m215 -129 c45 -45 102 -113 129 -149 l47
-67 -10 -76 c-17 -119 -13 -239 10 -345 12 -52 22 -106 22 -120 -1 -26 -63
-170 -74 -170 -4 0 -16 23 -28 51 -15 36 -19 62 -15 88 9 57 -18 146 -87 283
-57 114 -62 128 -61 189 0 37 6 77 12 90 9 17 -1 11 -32 -18 -24 -24 -46 -43
-49 -43 -3 0 -34 70 -69 156 -45 111 -60 158 -52 166 16 16 113 47 147 48 25
0 44 -15 110 -83z"/>
<path d="M2347 2699 c-96 -63 -253 -259 -321 -399 -39 -81 -41 -89 -40 -175 1
-102 29 -207 94 -361 48 -112 109 -219 120 -207 4 4 58 130 120 278 62 149
130 313 152 365 22 52 55 131 73 175 18 44 49 118 69 165 20 46 36 88 36 91 0
17 -199 99 -241 99 -8 0 -36 -14 -62 -31z m145 -59 c82 -31 81 -29 56 -88 -12
-29 -25 -52 -28 -52 -3 0 -13 12 -22 28 -9 15 -35 48 -57 74 -23 25 -41 49
-41 52 0 12 40 6 92 -14z m-136 -72 c-5 -34 -26 -87 -61 -153 -68 -127 -87
-185 -87 -260 1 -69 20 -131 57 -179 29 -38 30 -45 12 -70 -11 -14 -17 -15
-42 -6 -17 6 -57 15 -89 18 l-60 7 -18 70 c-19 77 -23 125 -9 125 11 0 47 115
57 180 4 30 22 67 52 109 58 82 170 211 184 211 7 0 8 -18 4 -52z"/>
<path d="M7709 3878 c-178 -229 -361 -550 -427 -748 -57 -169 -73 -313 -51
-436 11 -60 66 -194 79 -194 5 0 37 21 72 47 95 71 185 169 220 240 28 57 30
69 26 137 -6 85 -32 138 -108 221 -76 82 -90 105 -90 145 0 96 77 257 246 512
62 92 110 168 108 168 -2 0 -36 -42 -75 -92z"/>
<path d="M435 3775 c126 -250 152 -320 170 -455 19 -149 52 -218 154 -320 91
-92 149 -122 243 -128 85 -5 135 4 147 27 6 10 14 45 20 77 18 118 -21 232
-124 357 -65 79 -137 129 -219 153 -84 23 -179 116 -466 454 -11 14 22 -60 75
-165z"/>
<path d="M1227 3802 c169 -253 269 -478 244 -545 -5 -12 -39 -56 -76 -97 -82
-92 -116 -156 -122 -231 -9 -99 31 -182 143 -291 57 -56 161 -138 174 -138 14
0 60 100 75 161 55 236 -39 557 -273 930 -72 116 -242 352 -261 363 -5 3 39
-65 96 -152z"/>
<path d="M8532 3930 c-45 -60 -176 -208 -278 -312 -88 -89 -113 -109 -157
-124 -126 -41 -206 -104 -290 -226 -69 -102 -95 -229 -67 -328 17 -60 22 -63
112 -68 125 -6 180 18 285 123 98 97 139 175 155 287 23 172 38 216 155 447
62 124 111 226 110 228 -2 1 -13 -11 -25 -27z"/>
<path d="M4925 3642 c63 -37 114 -92 145 -157 20 -41 25 -66 25 -135 0 -76 -4
-93 -31 -148 l-30 -62 33 -11 c46 -15 60 -7 74 40 7 23 15 41 19 41 5 0 27 -9
51 -20 123 -56 274 5 329 132 18 42 21 64 17 116 -6 75 -21 99 -24 39 -4 -61
-48 -143 -96 -178 -22 -16 -65 -37 -95 -45 -47 -14 -61 -14 -110 -2 l-57 13
-3 53 c-2 35 4 71 17 106 22 59 31 148 16 152 -5 2 -21 -21 -34 -51 -13 -30
-26 -55 -30 -55 -4 0 -15 16 -25 35 -26 48 -98 113 -149 135 -74 31 -94 32
-42 2z"/>
<path d="M4255 3615 c9 -59 60 -105 119 -105 29 0 52 7 70 21 27 21 61 77 53
86 -3 2 -10 -5 -16 -16 -18 -33 -68 -54 -118 -48 -49 5 -79 27 -100 72 l-14
30 6 -40z"/>
<path d="M3657 3194 c-24 -24 8 -150 53 -212 16 -23 30 -44 30 -47 0 -3 -24
-17 -52 -30 -154 -72 -338 35 -338 195 0 47 -15 53 -24 9 -32 -164 72 -299
230 -299 71 0 152 35 184 81 l21 29 56 -32 c77 -44 181 -50 268 -17 100 38
205 166 193 238 -3 18 -9 13 -44 -32 -28 -36 -60 -63 -105 -87 -57 -31 -72
-34 -144 -35 -63 0 -91 5 -130 23 -68 31 -132 95 -164 165 -15 32 -30 55 -34
51z"/>
<path d="M110 3136 c0 -2 8 -10 18 -17 15 -13 16 -12 3 4 -13 16 -21 21 -21
13z"/>
<path d="M8739 3083 l-24 -28 28 24 c25 23 32 31 24 31 -2 0 -14 -12 -28 -27z"/>
<path d="M8674 3008 l-29 -33 33 29 c17 17 32 31 32 33 0 8 -8 1 -36 -29z"/>
<path d="M257 2965 c34 -38 115 -122 180 -186 187 -183 325 -287 482 -364 143
-70 181 -80 317 -80 118 0 121 1 195 37 41 21 83 46 93 56 16 19 15 22 -32 79
-78 93 -179 180 -255 218 -60 30 -80 35 -141 35 -62 0 -81 -5 -141 -35 -39
-19 -98 -55 -133 -80 -41 -29 -74 -45 -93 -45 -75 0 -213 103 -406 303 -70 73
-99 101 -66 62z"/>
<path d="M8530 2854 c-166 -167 -289 -254 -358 -254 -16 0 -49 14 -73 31 -158
110 -202 130 -289 130 -125 1 -259 -84 -397 -250 -50 -62 -52 -66 -36 -83 10
-11 51 -36 93 -56 74 -37 76 -37 200 -37 119 1 129 2 217 36 157 61 327 175
510 341 81 73 261 258 251 258 -2 0 -55 -52 -118 -116z"/>
<path d="M1800 1039 c-22 -18 -22 -19 -3 -10 12 6 25 16 28 21 9 15 3 12 -25
-11z"/>
<path d="M1666 939 c-42 -33 -76 -62 -76 -62 0 -1 -4 -18 -10 -36 l-10 -35 40
39 c22 22 40 44 40 50 0 14 42 55 57 55 13 0 48 38 41 45 -3 3 -39 -22 -82
-56z"/>
<path d="M7296 843 c-6 -14 -5 -15 5 -6 7 7 10 15 7 18 -3 3 -9 -2 -12 -12z"/>
<path d="M1491 749 c-20 -56 -6 -169 20 -169 5 0 4 12 -2 27 -9 23 -4 21 39
-19 63 -59 83 -69 145 -73 l52 -3 -69 24 c-103 35 -136 74 -136 159 0 25 -4
45 -10 45 -5 0 -10 -14 -10 -31 0 -19 -4 -28 -11 -23 -7 4 -9 22 -4 50 7 52 1
57 -14 13z"/>
<path d="M1998 503 c6 -2 18 -2 25 0 6 3 1 5 -13 5 -14 0 -19 -2 -12 -5z"/>
<path d="M1620 491 l-24 -7 29 -11 c60 -24 159 -44 244 -50 103 -7 104 3 0 17
-41 5 -83 14 -94 19 -26 12 -117 41 -124 40 -3 -1 -17 -4 -31 -8z m66 -11 c15
-6 24 -13 22 -16 -3 -3 -21 2 -39 10 -39 16 -24 21 17 6z"/>
<path d="M1779 475 c44 -19 64 -19 27 0 -15 8 -36 15 -45 15 -9 -1 -1 -7 18
-15z"/>
<path d="M1890 480 c8 -5 29 -9 45 -9 29 1 29 1 5 9 -14 4 -34 8 -45 9 -16 1
-17 -1 -5 -9z"/>
<path d="M1858 453 c6 -2 18 -2 25 0 6 3 1 5 -13 5 -14 0 -19 -2 -12 -5z"/>
<path d="M6470 349 c-25 -10 -50 -16 -57 -14 -17 6 -102 -33 -136 -61 -26 -22
-27 -24 -8 -24 12 0 21 4 21 9 0 15 60 41 95 41 18 0 35 6 38 13 3 7 23 19 46
25 22 7 43 17 46 22 3 6 5 10 3 9 -2 -1 -23 -9 -48 -20z"/>
<path d="M4164 341 c3 -5 15 -7 26 -4 28 7 25 13 -6 13 -14 0 -23 -4 -20 -9z"/>
<path d="M4230 319 c-12 -8 -10 -14 15 -35 31 -26 125 -84 137 -84 6 0 -92 94
-122 117 -11 8 -21 9 -30 2z"/>
<path d="M6345 274 l-40 -13 40 5 c42 6 85 24 55 23 -8 0 -33 -7 -55 -15z"/>
<path d="M6141 199 c-40 -16 -19 -18 34 -4 39 11 43 14 20 14 -16 0 -41 -5
-54 -10z"/>
<path d="M4502 155 c9 -10 21 -16 28 -13 7 2 -1 10 -16 17 -27 12 -28 11 -12
-4z"/>
<path d="M4835 40 c129 -25 225 -34 225 -21 0 15 37 14 42 -1 3 -7 14 -9 32
-4 15 4 26 12 24 18 -6 17 -55 20 -138 7 -62 -9 -87 -8 -143 5 -38 9 -83 16
-100 15 -18 -1 8 -9 58 -19z"/>
<path d="M5318 43 c7 -3 16 -2 19 1 4 3 -2 6 -13 5 -11 0 -14 -3 -6 -6z"/>
</g>
</svg>
